<mxfile host="app.diagrams.net" agent="Mozilla/5.0 (Macintosh; Intel Mac OS X 10_15_7) AppleWebKit/537.36 (KHTML, like Gecko) Chrome/131.0.0.0 Safari/537.36" version="26.0.16">
  <diagram name="Page-1" id="YkQAsFjGY0xjS8fpHVmh">
    <mxGraphModel dx="615" dy="731" grid="1" gridSize="10" guides="1" tooltips="1" connect="1" arrows="1" fold="1" page="1" pageScale="1" pageWidth="827" pageHeight="1169" math="0" shadow="0">
      <root>
        <mxCell id="0" />
        <mxCell id="1" parent="0" />
        <mxCell id="eFtwmkqOAbaTKaDrhrjX-2" value="Host Binary" style="rounded=1;whiteSpace=wrap;html=1;fillColor=#e1d5e7;strokeColor=#9673a6;" vertex="1" parent="1">
          <mxGeometry x="80" y="160" width="120" height="60" as="geometry" />
        </mxCell>
        <mxCell id="eFtwmkqOAbaTKaDrhrjX-3" value="Device Code as LLVM IR" style="rounded=1;whiteSpace=wrap;html=1;" vertex="1" parent="1">
          <mxGeometry x="90" y="210" width="100" height="30" as="geometry" />
        </mxCell>
        <mxCell id="eFtwmkqOAbaTKaDrhrjX-4" value="AdaptiveCpp Runtime" style="rounded=1;whiteSpace=wrap;html=1;fillColor=#dae8fc;strokeColor=#6c8ebf;" vertex="1" parent="1">
          <mxGeometry x="280" y="160" width="120" height="60" as="geometry" />
        </mxCell>
        <mxCell id="eFtwmkqOAbaTKaDrhrjX-5" value="" style="endArrow=classic;startArrow=classic;html=1;rounded=0;exitX=1;exitY=0.5;exitDx=0;exitDy=0;entryX=0;entryY=0.5;entryDx=0;entryDy=0;" edge="1" parent="1" source="eFtwmkqOAbaTKaDrhrjX-2" target="eFtwmkqOAbaTKaDrhrjX-4">
          <mxGeometry width="50" height="50" relative="1" as="geometry">
            <mxPoint x="390" y="400" as="sourcePoint" />
            <mxPoint x="440" y="350" as="targetPoint" />
          </mxGeometry>
        </mxCell>
        <mxCell id="eFtwmkqOAbaTKaDrhrjX-6" value="Host JIT" style="rounded=1;whiteSpace=wrap;html=1;fillColor=#dae8fc;strokeColor=#6c8ebf;" vertex="1" parent="1">
          <mxGeometry x="450" y="120" width="120" height="30" as="geometry" />
        </mxCell>
        <mxCell id="eFtwmkqOAbaTKaDrhrjX-8" value="OpenMP/LLVM-supported CPUs" style="rounded=1;whiteSpace=wrap;html=1;fillColor=#fff2cc;strokeColor=#d6b656;" vertex="1" parent="1">
          <mxGeometry x="580" y="120" width="120" height="30" as="geometry" />
        </mxCell>
        <mxCell id="eFtwmkqOAbaTKaDrhrjX-10" value="" style="endArrow=classic;html=1;rounded=0;exitX=1;exitY=0.5;exitDx=0;exitDy=0;entryX=0;entryY=0.5;entryDx=0;entryDy=0;" edge="1" parent="1" source="eFtwmkqOAbaTKaDrhrjX-4" target="eFtwmkqOAbaTKaDrhrjX-6">
          <mxGeometry width="50" height="50" relative="1" as="geometry">
            <mxPoint x="470" y="270" as="sourcePoint" />
            <mxPoint x="450" y="190" as="targetPoint" />
            <Array as="points">
              <mxPoint x="420" y="190" />
              <mxPoint x="420" y="135" />
            </Array>
          </mxGeometry>
        </mxCell>
        <mxCell id="eFtwmkqOAbaTKaDrhrjX-11" value="PTX JIT" style="rounded=1;whiteSpace=wrap;html=1;fillColor=#dae8fc;strokeColor=#6c8ebf;" vertex="1" parent="1">
          <mxGeometry x="450" y="160" width="120" height="30" as="geometry" />
        </mxCell>
        <mxCell id="eFtwmkqOAbaTKaDrhrjX-12" value="NVIDIA GPUs" style="rounded=1;whiteSpace=wrap;html=1;fillColor=#d5e8d4;strokeColor=#82b366;" vertex="1" parent="1">
          <mxGeometry x="580" y="160" width="120" height="30" as="geometry" />
        </mxCell>
        <mxCell id="eFtwmkqOAbaTKaDrhrjX-13" value="amdgcn JIT" style="rounded=1;whiteSpace=wrap;html=1;fillColor=#dae8fc;strokeColor=#6c8ebf;" vertex="1" parent="1">
          <mxGeometry x="450" y="200" width="120" height="30" as="geometry" />
        </mxCell>
        <mxCell id="eFtwmkqOAbaTKaDrhrjX-14" value="AMD GPUs" style="rounded=1;whiteSpace=wrap;html=1;fillColor=#f8cecc;strokeColor=#b85450;" vertex="1" parent="1">
          <mxGeometry x="580" y="200" width="120" height="30" as="geometry" />
        </mxCell>
        <mxCell id="eFtwmkqOAbaTKaDrhrjX-15" value="SPIR-V JIT" style="rounded=1;whiteSpace=wrap;html=1;fillColor=#dae8fc;strokeColor=#6c8ebf;" vertex="1" parent="1">
          <mxGeometry x="450" y="240" width="120" height="30" as="geometry" />
        </mxCell>
        <mxCell id="eFtwmkqOAbaTKaDrhrjX-16" value="Intel GPUs,&lt;br&gt;OpenCL Devices" style="rounded=1;whiteSpace=wrap;html=1;fillColor=#e1d5e7;strokeColor=#9673a6;" vertex="1" parent="1">
          <mxGeometry x="580" y="240" width="120" height="30" as="geometry" />
        </mxCell>
        <mxCell id="eFtwmkqOAbaTKaDrhrjX-18" value="" style="endArrow=classic;html=1;rounded=0;exitX=1;exitY=0.5;exitDx=0;exitDy=0;entryX=0;entryY=0.5;entryDx=0;entryDy=0;" edge="1" parent="1" source="eFtwmkqOAbaTKaDrhrjX-4" target="eFtwmkqOAbaTKaDrhrjX-15">
          <mxGeometry width="50" height="50" relative="1" as="geometry">
            <mxPoint x="480" y="270" as="sourcePoint" />
            <mxPoint x="530" y="220" as="targetPoint" />
            <Array as="points">
              <mxPoint x="420" y="190" />
              <mxPoint x="420" y="255" />
            </Array>
          </mxGeometry>
        </mxCell>
        <mxCell id="eFtwmkqOAbaTKaDrhrjX-19" value="" style="endArrow=classic;html=1;rounded=0;entryX=0;entryY=0.5;entryDx=0;entryDy=0;" edge="1" parent="1" target="eFtwmkqOAbaTKaDrhrjX-11">
          <mxGeometry width="50" height="50" relative="1" as="geometry">
            <mxPoint x="420" y="175" as="sourcePoint" />
            <mxPoint x="530" y="220" as="targetPoint" />
          </mxGeometry>
        </mxCell>
        <mxCell id="eFtwmkqOAbaTKaDrhrjX-20" value="" style="endArrow=classic;html=1;rounded=0;entryX=0;entryY=0.5;entryDx=0;entryDy=0;" edge="1" parent="1" target="eFtwmkqOAbaTKaDrhrjX-13">
          <mxGeometry width="50" height="50" relative="1" as="geometry">
            <mxPoint x="420" y="215" as="sourcePoint" />
            <mxPoint x="460" y="185" as="targetPoint" />
          </mxGeometry>
        </mxCell>
      </root>
    </mxGraphModel>
  </diagram>
</mxfile>
